<svg width="194" height="185" viewBox="0 0 194 185" fill="none" xmlns="http://www.w3.org/2000/svg">
<path d="M132.88 34.14H126.64C123.823 34.14 121.54 36.4234 121.54 39.24V61.8C121.54 64.6167 123.823 66.9 126.64 66.9H132.88C135.697 66.9 137.98 64.6167 137.98 61.8V39.24C137.98 36.4234 135.697 34.14 132.88 34.14Z" fill="#D1AFA3" stroke="#2B2B2B" stroke-width="0.52" stroke-linecap="round" stroke-linejoin="round"/>
<path d="M134.58 42.35V34.43C134.05 34.24 133.48 34.14 132.88 34.14H126.65C123.83 34.14 121.55 36.42 121.55 39.24V57.53C129.07 57.53 134.58 50.61 134.58 42.35Z" fill="#2B2B2B"/>
<path d="M155.37 16.79C156.04 16.57 156.52 15.95 156.52 15.21C156.52 14.42 155.97 13.77 155.24 13.59C155.37 13.3 155.45 13.01 155.45 12.69C155.45 11.79 154.73 11.06 153.84 11.03C153.92 10.83 153.97 10.62 153.97 10.4C153.97 9.47999 153.22 8.73999 152.31 8.73999C152 8.73999 151.72 8.81999 151.47 8.96999C151.42 8.72999 151.44 8.57999 151.44 8.40999C151.44 7.48999 150.69 6.74999 149.78 6.74999C149.52 6.74999 149.28 6.80999 149.06 6.90999C148.99 6.85999 148.92 6.80999 148.85 6.75999C148.85 5.70999 148.11 4.95999 147.19 4.95999C146.89 4.95999 146.61 5.03999 146.36 5.17999C146.27 5.12999 146.19 5.08999 146.1 5.03999C146.1 4.03999 145.36 3.29999 144.44 3.29999C143.99 3.29999 143.58 3.47999 143.28 3.76999C143.26 2.85999 142.53 2.12999 141.62 2.12999C141.05 2.12999 140.54 2.41999 140.24 2.85999C139.91 2.00999 139.22 1.39999 138.39 1.39999C137.75 1.39999 137.19 1.75999 136.91 2.29999C136.83 2.29999 136.74 2.27999 136.66 2.26999C136.46 1.56999 135.82 1.05999 135.06 1.05999C134.35 1.05999 133.75 1.49999 133.51 2.11999C133.09 1.45999 132.47 0.98999 131.73 0.98999C130.93 0.98999 130.26 1.55999 130.1 2.30999C129.7 1.71999 129.1 1.28999 128.4 1.28999C127.52 1.28999 126.8 1.96999 126.74 2.82999C126.65 2.84999 126.56 2.86999 126.47 2.88999C126.17 2.42999 125.66 2.11999 125.07 2.11999C124.18 2.11999 123.45 2.82999 123.41 3.70999C122.98 2.81999 122.25 2.11999 121.36 2.11999C120.72 2.11999 120.16 2.48999 119.88 3.01999C119.53 2.20999 118.85 1.61999 118.03 1.61999C117.35 1.61999 116.76 2.02999 116.5 2.62999C116.31 1.82999 115.62 1.21999 114.79 1.21999C113.96 1.21999 113.3 1.79999 113.15 2.57999C112.69 1.91999 112.06 1.42999 111.32 1.42999C110.45 1.42999 109.74 2.08999 109.66 2.93999C109.15 2.46999 108.61 2.12999 107.99 2.12999C107.08 2.12999 106.35 2.85999 106.33 3.75999C106.24 3.78999 106.16 3.81999 106.07 3.84999C105.77 3.50999 105.32 3.29999 104.83 3.29999C103.91 3.29999 103.17 4.04999 103.17 4.95999C102.77 5.04999 102.47 4.95999 102.15 4.95999C101.23 4.95999 100.49 5.70999 100.49 6.61999C100.49 6.71999 100.49 6.80999 100.51 6.89999C100.43 6.95999 100.36 7.02999 100.28 7.08999C100.18 7.06999 100.08 7.05999 99.97 7.05999C99.05 7.05999 98.31 7.80999 98.31 8.71999C98.31 8.81999 98.31 8.91999 98.34 9.00999C97.4 9.02999 96.65 9.77999 96.65 10.7C96.65 10.87 96.68 11.03 96.72 11.19C95.72 11.32 94.98 12.06 94.98 12.98C94.98 13.2 95.02 13.42 95.1 13.61C94.26 13.7 93.61 14.4 93.61 15.27C93.61 16.19 94.36 16.93 95.27 16.93C95.48 16.93 95.69 16.89 95.88 16.82C95.9 16.92 95.93 17.02 95.96 17.12C95.14 17.23 94.52 17.92 94.52 18.77C94.52 19.69 95.27 20.43 96.18 20.43C96.45 20.43 96.7 20.37 96.92 20.26C96.49 20.65 96.18 21.17 96.18 21.76C96.18 22.68 96.93 23.42 97.84 23.42C97.96 23.42 98.09 23.41 98.2 23.38C97.81 23.71 97.54 24.2 97.54 24.75C97.54 25.67 98.29 26.41 99.2 26.41C99.39 26.41 99.57 26.38 99.74 26.32C99.41 26.62 99.2 27.06 99.2 27.55C99.2 28.47 99.95 29.21 100.86 29.21C101.18 29.21 101.48 29.12 101.73 28.96C101.56 29.22 101.46 29.54 101.46 29.87C101.46 30.79 102.21 31.53 103.12 31.53C103.42 31.53 103.71 31.45 103.95 31.31C103.93 32.45 104.68 33.2 105.6 33.2C106.02 33.2 106.4 33.04 106.69 32.79C106.9 33.71 107.61 34.38 108.48 34.38C108.97 34.38 109.41 34.17 109.71 33.84C110.35 33.98 111.02 34.08 111.71 34.14H139.54C140.76 34.04 141.89 33.81 142.94 33.47C143.24 33.86 143.72 34.11 144.25 34.11C145.17 34.11 145.91 33.36 145.91 32.45C146.19 32.59 146.55 32.73 146.94 32.73C147.86 32.73 148.6 31.98 148.6 31.07C148.6 30.9 148.57 30.73 148.52 30.57C148.79 30.77 149.13 30.88 149.49 30.88C150.41 30.88 151.15 30.13 151.15 29.22C151.15 28.79 150.99 28.4 150.72 28.1C150.88 28.15 151.06 28.18 151.24 28.18C152.16 28.18 152.9 27.43 152.9 26.52C152.9 26.11 152.75 25.74 152.51 25.45C153.65 25.47 154.4 24.72 154.4 23.8C154.4 23.4 154.26 23.03 154.02 22.74C154.65 22.5 155.1 21.9 155.1 21.18C155.1 20.67 154.87 20.21 154.51 19.91C155.42 19.91 156.16 19.16 156.16 18.25C156.16 17.64 155.83 17.11 155.34 16.82L155.37 16.79Z" fill="#2B2B2B" stroke="#2B2B2B" stroke-width="0.52" stroke-linecap="round" stroke-linejoin="round"/>
<path d="M119.79 53.07C113.56 53.07 108.51 48.02 108.51 41.79V20.08C108.51 11.94 115.11 5.33997 123.25 5.33997C131.39 5.33997 137.99 11.94 137.99 20.08V34.87C137.99 44.92 129.84 53.06 119.8 53.06L119.79 53.07Z" fill="#D1AFA3" stroke="#2B2B2B" stroke-width="0.52" stroke-linecap="round" stroke-linejoin="round"/>
<path d="M125.01 4.94995H123.53C114.53 4.94995 107.51 12.7499 108.47 21.6999C108.5 21.9399 108.51 22.08 108.51 22.08C108.51 18.84 109.92 17.22 109.92 17.22C110.06 18.03 110.76 18.65 111.59 18.65C112.19 18.65 112.71 18.34 113 17.86C113.27 18.55 113.91 19.05 114.66 19.05C115.23 19.05 115.73 18.76 116.03 18.33C116.3 18.88 116.87 19.25 117.52 19.25C118.12 19.25 118.65 18.9299 118.94 18.4499C119.18 19.0699 119.78 19.51 120.49 19.51C121.2 19.51 121.76 19.1 122.01 18.51C122.36 19.25 123.02 19.8 123.81 19.8C124.42 19.8 124.96 19.47 125.25 18.98C125.52 19.53 126.09 19.9 126.74 19.9C127.43 19.9 128.02 19.4799 128.28 18.8799C128.55 19.4299 129.12 19.8 129.77 19.8C130.66 19.8 131.38 19.1099 131.43 18.2399C131.55 18.3299 131.53 18.44 131.53 18.55C131.53 19.47 132.28 20.2099 133.19 20.2099C133.31 20.2099 133.42 20.2 133.53 20.18C133.02 20.51 132.67 21.06 132.67 21.69C132.67 22.49 133.24 23.16 134 23.32C133.7 23.6199 133.51 24.04 133.51 24.5C133.51 25.09 133.81 25.6 134.27 25.9C133.91 26.21 133.69 26.66 133.69 27.16C133.69 27.66 133.94 28.16 134.32 28.4599C134.2 28.6899 134.14 28.95 134.14 29.22C134.14 29.94 134.6 30.5499 135.23 30.7799L137.98 37.2799V44.0299L140.16 34.6399V20.0999C140.16 11.7299 133.38 4.94995 125.01 4.94995Z" fill="#2B2B2B" stroke="#2B2B2B" stroke-width="0.52" stroke-linecap="round" stroke-linejoin="round"/>
<path d="M121.54 30.54C121.54 30.54 123.58 27.03 129.02 29.52" stroke="#2B2B2B" stroke-width="0.52" stroke-linecap="round" stroke-linejoin="round"/>
<path d="M126.19 29.84C126.19 30.75 125.66 30.84 125 30.84C124.34 30.84 123.81 30.75 123.81 29.84C123.81 28.62 124.34 28.62 125 28.62C125.66 28.62 126.19 28.63 126.19 29.84Z" fill="#2B2B2B"/>
<path d="M115.48 30.54C115.48 30.54 113.44 27.03 108 29.52" stroke="#2B2B2B" stroke-width="0.52" stroke-linecap="round" stroke-linejoin="round"/>
<path d="M110.83 29.84C110.83 30.75 111.36 30.84 112.02 30.84C112.68 30.84 113.21 30.75 113.21 29.84C113.21 28.62 112.68 28.62 112.02 28.62C111.36 28.62 110.83 28.63 110.83 29.84Z" fill="#2B2B2B"/>
<path d="M117.8 28.3201C117.8 28.3201 116.15 34.1601 115.59 37.7201C115.52 38.1701 115.84 38.5901 116.29 38.6401C117.12 38.7301 119.69 38.6201 119.69 38.6201" stroke="#2B2B2B" stroke-width="0.52" stroke-linecap="round" stroke-linejoin="round"/>
<path d="M114.79 42.99C118.67 45.31 122.01 42.99 122.01 42.99" stroke="#2B2B2B" stroke-width="0.52" stroke-linecap="round" stroke-linejoin="round"/>
<path d="M126.63 26.4H123.37C122.92 26.4 122.56 26.04 122.56 25.59C122.56 25.14 122.92 24.78 123.37 24.78H126.63C127.08 24.78 127.44 25.14 127.44 25.59C127.44 26.04 127.08 26.4 126.63 26.4Z" fill="#2B2B2B" stroke="#2B2B2B" stroke-width="0.52" stroke-linecap="round" stroke-linejoin="round"/>
<path d="M113.99 26.4H110.73C110.28 26.4 109.92 26.04 109.92 25.59C109.92 25.14 110.28 24.78 110.73 24.78H113.99C114.44 24.78 114.8 25.14 114.8 25.59C114.8 26.04 114.44 26.4 113.99 26.4Z" fill="#2B2B2B" stroke="#2B2B2B" stroke-width="0.52" stroke-linecap="round" stroke-linejoin="round"/>
<path d="M141.52 35.84L138.37 37.34C135.81 38.56 132.85 36.69 132.85 33.85C132.85 32.36 133.71 31 135.06 30.36L138.21 28.86C140.77 27.64 143.73 29.51 143.73 32.35C143.73 33.84 142.87 35.2 141.52 35.84Z" fill="#D1AFA3"/>
<path d="M134.22 30.88C134.47 30.67 134.75 30.49 135.05 30.35L138.2 28.85C140.76 27.63 143.72 29.5 143.72 32.34C143.72 33.83 142.86 35.19 141.51 35.83L138.36 37.33C138.04 37.48 137.71 37.59 137.38 37.65" stroke="#2B2B2B" stroke-width="0.52" stroke-linecap="round" stroke-linejoin="round"/>
<path d="M136.39 35.1999C136.01 34.7299 135.79 34.1399 135.79 33.4899C135.79 31.9899 137.01 30.7699 138.51 30.7699C139.5 30.7699 140.37 31.2999 140.84 32.0899" stroke="#2B2B2B" stroke-width="0.52" stroke-linecap="round" stroke-linejoin="round"/>
<path d="M135.88 33.0499C136.23 32.8799 136.53 32.7899 136.95 32.7899C137.89 32.7899 138.72 33.2699 139.21 33.9899" stroke="#2B2B2B" stroke-width="0.52" stroke-linecap="round" stroke-linejoin="round"/>
<path d="M125.66 37.28H121.29C119.93 37.28 118.83 36.18 118.83 34.82V33.28C118.83 32.82 119.2 32.45 119.66 32.45H128.99C129.93 32.45 130.45 33.52 129.88 34.26L128.71 35.78C127.98 36.73 126.86 37.28 125.66 37.28Z" stroke="#2B2B2B" stroke-width="0.52" stroke-linecap="round" stroke-linejoin="round"/>
<path d="M108.41 37.28H112.78C114.14 37.28 115.24 36.18 115.24 34.82V33.28C115.24 32.82 114.87 32.45 114.41 32.45H105.08C104.15 32.45 103.62 33.52 104.19 34.26L105.36 35.78C106.09 36.73 107.21 37.28 108.41 37.28Z" stroke="#2B2B2B" stroke-width="0.52" stroke-linecap="round" stroke-linejoin="round"/>
<path d="M115.24 33.91H115.85C115.85 33.91 116.25 33.46 116.91 33.46C117.57 33.46 117.89 33.91 117.89 33.91H118.82" stroke="#2B2B2B" stroke-width="0.52" stroke-linecap="round" stroke-linejoin="round"/>
<path d="M90.45 146.97C97.68 148.61 105.76 144.01 107.4 136.78L119.72 78.81C121.36 71.58 116.84 64.39 109.61 62.74C102.38 61.1 95.19 65.62 93.54 72.85L80.33 130.89C78.69 138.12 83.21 145.31 90.44 146.96L90.45 146.97Z" fill="#F04A66" stroke="#2B2B2B" stroke-width="0.52" stroke-linecap="round" stroke-linejoin="round"/>
<path d="M55.28 99.21C55.28 99.21 49.66 98.92 44.32 109.58C38.98 120.24 42.86 126.51 42.86 126.51L48.12 127.2L60.94 105.68L55.29 99.21H55.28Z" fill="white" stroke="#2B2B2B" stroke-width="0.52" stroke-linecap="round" stroke-linejoin="round"/>
<path d="M19.35 99.89C16.48 106.73 19.69 114.59 26.53 117.46L88.61 145.45C95.45 148.32 103.31 145.11 106.18 138.27C109.05 131.43 105.84 123.57 99 120.7L36.92 92.71C30.08 89.84 22.22 93.05 19.35 99.89Z" fill="#D1AFA3" stroke="#2B2B2B" stroke-width="0.52" stroke-linecap="round" stroke-linejoin="round"/>
<path d="M99.57 119.83L55.28 99.2C55.28 99.2 57.93 104.95 53.13 115.06C48.33 125.17 42.86 126.49 42.86 126.49L87.75 146.05C95.06 149.32 103.63 146 106.82 138.66C109.96 131.45 106.73 123.06 99.57 119.82V119.83Z" fill="#F04A66"/>
<path d="M88.4 114.63L55.28 99.21C55.28 99.21 57.93 104.96 53.13 115.07C48.33 125.18 42.86 126.5 42.86 126.5L87.75 146.06C95.06 149.33 103.63 146.01 106.82 138.67C107.32 137.53 107.65 136.36 107.84 135.19L108.6 131.09" stroke="#2B2B2B" stroke-width="0.52" stroke-linecap="round" stroke-linejoin="round"/>
<path d="M9.97003 113.67L26.1 85.6799L32.16 89.17C32.99 89.65 33.85 90.0599 34.75 90.3999L35.14 90.55L41.07 84.96L41.85 85.41C49.29 89.7 51.84 99.2 47.56 106.64L42.91 114.71C38.62 122.15 29.12 124.7 21.68 120.42L9.98003 113.68L9.97003 113.67Z" fill="#D1AFA3"/>
<path d="M26.11 85.6799L32.17 89.1699C33 89.6499 33.86 90.0599 34.76 90.3999L35.15 90.5499" stroke="#2B2B2B" stroke-width="0.52" stroke-linecap="round" stroke-linejoin="round"/>
<path d="M40.16 118.21C35.3 122.84 27.79 123.94 21.67 120.42L9.97003 113.68" stroke="#2B2B2B" stroke-width="0.52" stroke-linecap="round" stroke-linejoin="round"/>
<path d="M41.07 84.96L41.85 85.41C47.98 88.94 50.79 96.01 49.2 102.55" stroke="#2B2B2B" stroke-width="0.52" stroke-linecap="round" stroke-linejoin="round"/>
<path d="M1.59002 76.2299C2.71002 74.2899 5.18002 73.6299 7.12002 74.7399L26.11 85.6799L22.07 92.6999L3.08002 81.7599C1.14002 80.6399 0.480018 78.1699 1.59002 76.2299Z" fill="#D1AFA3"/>
<path d="M22.06 92.6999L3.07001 81.7599C1.13001 80.6399 0.470009 78.1699 1.58001 76.2299C2.70001 74.2899 5.17001 73.6299 7.11001 74.7399L26.1 85.6799" stroke="#2B2B2B" stroke-width="0.52" stroke-linecap="round" stroke-linejoin="round"/>
<path d="M12.45 91.8C13.57 89.86 16.04 89.2 17.98 90.31L25.19 94.47C27.13 95.59 27.79 98.06 26.68 100C25.56 101.94 23.09 102.6 21.15 101.49L13.94 97.33C12 96.21 11.34 93.74 12.45 91.8Z" fill="#D1AFA3" stroke="#2B2B2B" stroke-width="0.52" stroke-linecap="round" stroke-linejoin="round"/>
<path d="M9.74999 99.56C10.87 97.62 13.34 96.96 15.28 98.07L20.62 101.15C22.56 102.27 23.22 104.74 22.11 106.68C20.99 108.62 18.52 109.28 16.58 108.17L11.24 105.09C9.29999 103.97 8.63999 101.5 9.74999 99.56Z" fill="#D1AFA3" stroke="#2B2B2B" stroke-width="0.52" stroke-linecap="round" stroke-linejoin="round"/>
<path d="M6.51 107.01C7.63 105.07 10.1 104.41 12.04 105.52L15.23 107.36C17.17 108.48 17.83 110.95 16.72 112.89C15.6 114.83 13.13 115.49 11.19 114.38L8 112.54C6.06 111.42 5.4 108.95 6.51 107.01Z" fill="#D1AFA3" stroke="#2B2B2B" stroke-width="0.52" stroke-linecap="round" stroke-linejoin="round"/>
<path d="M26.72 76.2699C28.35 74.7399 30.91 74.8199 32.44 76.4499L41.04 85.0099L35.14 90.5499L26.54 81.9899C25.01 80.3599 25.09 77.7999 26.72 76.2699Z" fill="#D1AFA3"/>
<path d="M41.05 85.0099L32.45 76.4499C30.92 74.8199 28.36 74.7399 26.73 76.2699C25.1 77.7999 25.02 80.3599 26.55 81.9899L35.15 90.5499L36.37 100.19C36.65 102.44 37.66 104.54 39.25 106.16" stroke="#2B2B2B" stroke-width="0.52" stroke-linecap="round" stroke-linejoin="round"/>
<path d="M118.87 145.24C123.23 142.05 128.6 140.16 134.41 140.16C142.67 140.16 150.04 143.96 154.87 149.91C162.1 152.69 167.43 159.47 167.97 167.71C167.98 167.91 167.99 168.11 168 168.31C168 168.31 168.19 176.88 168.49 184.37H100.91L101.74 164.48C101.75 164.28 101.76 164.08 101.78 163.88C102.52 154.28 109.77 146.73 118.87 145.23V145.24Z" fill="white" stroke="#2B2B2B" stroke-width="0.52" stroke-linecap="round" stroke-linejoin="round"/>
<path d="M121.54 58.06C121.54 58.06 121.71 62.89 125.46 63.38C135.15 64.66 137.97 56.08 137.97 56.08L159.36 60.88C167.31 62.33 172.88 69.56 172.26 77.61L166.72 123.47C166.17 130.54 166.36 137.65 167.3 144.68L169.41 160.61C169.72 162.93 167.94 165 165.6 165.04L102.16 166.17C99.9001 166.21 98.07 164.33 98.18 162.08L99.0701 142.48C99.2901 137.69 99.17 132.89 98.7 128.12L95.96 76.84C95.29 69.94 99.7801 63.59 106.52 61.91L121.56 58.06H121.54Z" fill="#2B2B2B" stroke="#2B2B2B" stroke-width="0.52" stroke-linecap="round" stroke-linejoin="round"/>
<path d="M119.69 60.58C120.22 62.48 121.48 64.95 124.47 65.35C133.42 66.53 137.91 61.32 139.79 58.11" stroke="white" stroke-width="0.52" stroke-linecap="round" stroke-linejoin="round"/>
<path d="M149.38 184.37L138.95 87.47L142 57.23C142.05 56.74 142.52 56.41 143 56.52L161.14 60.72C169.52 62.66 175.11 70.57 174.13 79.12L168.35 129.88L172.31 184.37H149.38Z" fill="#F04A66" stroke="#2B2B2B" stroke-width="0.52" stroke-linecap="round" stroke-linejoin="round"/>
<path d="M150.74 60.64L145.33 73.66L149.51 78.55L142.88 87.47L140.68 103.56" stroke="#2B2B2B" stroke-width="0.52" stroke-linecap="round" stroke-linejoin="round"/>
<path d="M112.89 60.3L106.92 88.33L105.17 184.39H95.89L97.56 130.55L95.19 75.92C94.92 69.59 98.85 63.83 104.84 61.78L111.86 59.38C112.44 59.18 113.02 59.69 112.89 60.29V60.3Z" fill="#F04A66"/>
<path d="M100.37 63.96C100.37 63.96 101.46 63.46 101.53 63.41C102.54 62.74 103.65 62.19 104.84 61.78L111.86 59.38C112.44 59.18 113.02 59.69 112.89 60.29L106.92 88.32L105.17 184.38H95.8901L97.5601 130.54L95.6801 87.21" stroke="#2B2B2B" stroke-width="0.52" stroke-linecap="round" stroke-linejoin="round"/>
<path d="M107.73 63.01L105.79 74.5L101.39 79.88L104.29 87.92L106.62 104.86" stroke="#2B2B2B" stroke-width="0.52" stroke-linecap="round" stroke-linejoin="round"/>
<path d="M183.15 145.86C190.31 143.93 194.55 136.57 192.62 129.41L177.14 71.93C175.21 64.77 167.85 60.53 160.69 62.46C153.53 64.39 149.29 71.75 151.22 78.91L166.7 136.39C168.63 143.55 175.99 147.79 183.15 145.86Z" fill="#F04A66"/>
<path d="M153.45 87.22L166.7 136.39C168.63 143.55 175.99 147.79 183.15 145.86C190.31 143.93 194.55 136.57 192.62 129.41L177.14 71.93C175.57 66.1 170.39 62.2 164.65 62" stroke="#2B2B2B" stroke-width="0.52" stroke-linecap="round" stroke-linejoin="round"/>
<path d="M179.66 120.14C172.25 120.14 166.24 126.15 166.24 133.56V184.37H187.06H193.08V133.56C193.08 126.15 187.07 120.14 179.66 120.14Z" fill="#F04A66"/>
<path d="M192.58 129.28C193.02 130.91 193.02 132.27 193.02 132.27C193.06 132.69 193.08 133.12 193.08 133.56V184.37H166.23V134.69L165.85 133.29" stroke="#2B2B2B" stroke-width="0.52" stroke-linecap="round" stroke-linejoin="round"/>
</svg>
